<svg width="87" height="63" viewBox="0 0 87 63" fill="none" xmlns="http://www.w3.org/2000/svg">
<path d="M87 19.8141C87 30.7572 78.1289 39.6283 67.1858 39.6283C56.2428 39.6283 47.3717 30.7572 47.3717 19.8141C47.3717 8.87109 56.2428 0 67.1858 0C78.1289 0 87 8.87109 87 19.8141Z" fill="url(#paint0_linear_539_276)"/>
<path d="M87 48.2618C87 56.3233 80.4528 62.8586 72.3735 62.8586H19.4475C8.7077 62.8586 0 54.1698 0 43.4474C0 32.7281 8.7077 24.0362 19.4475 24.0362C20.4107 24.0362 21.3575 24.11 22.2858 24.2443C26.6776 15.5391 35.7098 9.56544 46.1436 9.56544C58.7688 9.56544 69.3453 18.3147 72.124 30.0693C72.4012 31.2429 72.6015 32.4452 72.7165 33.6701V33.6731C80.6335 33.8535 87 40.3151 87 48.2618Z" fill="#1D556F"/>
<defs>
<linearGradient id="paint0_linear_539_276" x1="75.1676" y1="1.83445" x2="58.4741" y2="39.624" gradientUnits="userSpaceOnUse">
<stop stop-color="#FFD88B"/>
<stop offset="1" stop-color="#FFA900"/>
</linearGradient>
</defs>
</svg>
